# xmcd CD database file
#
# Track frame offsets:
#	150
#	24371
#	43430
#	65319
#	67117
#	97239
#	119607
#	136258
#	150443
#	152317
#	168200
#	196184
#	229489
#
# Disc length: 3068 seconds
#
# Revision: 0
# Processed by: cddbd v1.5.1PL0 Copyright (c) Steve Scherf et al.
# Submitted via: CDex 1.51
#
DISCID=ae0bfa0d
DTITLE=Enrique Mono Villegas - Vol. 1
DYEAR=1964
DGENRE=Jazz
TTITLE0=Mood Indigo
TTITLE1=In A Middle Tone
TTITLE2=Jam Blues In C
TTITLE3=Palabras Del Mono
TTITLE4=La Señora Se Disculpa
TTITLE5=Profundamente Enamorado
TTITLE6=Fácil De Amar (Easy To Love)
TTITLE7=Dixie Duddle
TTITLE8=Palabras Del Mono
TTITLE9=Caravana
TTITLE10=Te Para Dos
TTITLE11=Algunas Veces Soy Feliz
TTITLE12=Palabras Del Mono
EXTD=YEAR: 1964
EXTT0=
EXTT1=
EXTT2=
EXTT3=
EXTT4=
EXTT5=
EXTT6=
EXTT7=
EXTT8=
EXTT9=
EXTT10=
EXTT11=
EXTT12=
PLAYORDER=
